<svg viewBox="0 0 42 42" xmlns="http://www.w3.org/2000/svg">
  <defs></defs>
  <g class="cls-1" transform="matrix(0.75, 0, 0, 0.673708, -3, -0.558128)" style="isolation: isolate;">
    <g id="Layer_1" data-name="Layer 1">
      <g id="Vector">
        <rect class="cls-2" x="27.72" y="29.33" width="8.56" height="33.84" style="fill: rgb(235, 235, 255);"></rect>
        <path class="cls-3" d="M8.73,29.33h19V63.17H10.85a4.31,4.31,0,0,1-4.32-4.31V30.18a4.31,4.31,0,0,1,.2-1.3A4.59,4.59,0,0,0,8.73,29.33Z" style="fill: rgb(247, 19, 13);"></path>
        <path class="cls-3" d="M57.47,30.18V58.86a4.32,4.32,0,0,1-4.32,4.31H36.28V29.33h19a4.59,4.59,0,0,0,2-.45A4.31,4.31,0,0,1,57.47,30.18Z" style="fill: rgb(247, 19, 13);"></path>
        <rect class="cls-2" x="27.72" y="13.48" width="8.56" height="15.86" style="fill: rgb(235, 235, 255);"></rect>
        <path class="cls-4" d="M8.73,13.48h19V29.33h-19a4.59,4.59,0,0,1-2-.45A4.69,4.69,0,0,1,4,24.63V18.2A4.72,4.72,0,0,1,8.73,13.48Z" style="fill: rgb(0, 97, 59);"></path>
        <path class="cls-4" d="M60,18.2v6.43a4.69,4.69,0,0,1-2.72,4.25,4.59,4.59,0,0,1-2,.45h-19V13.48h19A4.72,4.72,0,0,1,60,18.2Z" style="fill: rgb(0, 97, 59);"></path>
        <path class="cls-3" d="M28.65,6.32S15.55-5.14,12.76,5.05s11.6,7.74,16.68,6" style="fill: rgb(247, 19, 13);"></path>
        <path class="cls-3" d="M35.35,6.32S48.45-5.14,51.24,5.05s-11.6,7.74-16.68,6" style="fill: rgb(247, 19, 13);"></path>
        <path class="cls-2" d="M31.17,11.74s-7.07,5.54-8.38,21L18.8,28,15,31.32s2.21-16.58,7.75-18.84Z" style="fill: rgb(235, 235, 255);"></path>
        <path class="cls-2" d="M48.39,31.07,44.57,27.7l-4,4.77c-1.31-15.43-8.37-21-8.37-21l8.43.74C46.18,14.5,48.39,31.07,48.39,31.07Z" style="fill: rgb(235, 235, 255);"></path>
        <rect class="cls-3" x="28.65" y="5.05" width="6.69" height="6.69" rx="2.18" style="fill: rgb(247, 19, 13);"></rect>
        <line class="cls-5" x1="53.44" y1="36.28" x2="53.44" y2="42.72" style="fill: none; stroke: rgb(242, 242, 242); stroke-linecap: round; stroke-linejoin: round; stroke-width: 2px;"></line>
        <line class="cls-5" x1="53.44" y1="46.29" x2="53.44" y2="52.38" style="fill: none; stroke: rgb(242, 242, 242); stroke-linecap: round; stroke-linejoin: round; stroke-width: 2px;"></line>
      </g>
      <g id="Line">
        <rect class="cls-6" x="27.72" y="29.33" width="8.56" height="33.84" style="fill: none; stroke: rgb(0, 0, 0); stroke-miterlimit: 10; stroke-width: 2px;"></rect>
        <line class="cls-6" x1="6.53" y1="43.46" x2="6.53" y2="41.73" style="fill: none; stroke: rgb(0, 0, 0); stroke-miterlimit: 10; stroke-width: 2px;"></line>
        <path class="cls-6" d="M6.53,40.44V30.18a4.31,4.31,0,0,1,.2-1.3,4.59,4.59,0,0,0,2,.45h19V63.17H10.85a4.31,4.31,0,0,1-4.32-4.31V45.26" style="fill: none; stroke: rgb(0, 0, 0); stroke-miterlimit: 10; stroke-width: 2px;"></path>
        <path class="cls-6" d="M57.47,30.18V58.86a4.32,4.32,0,0,1-4.32,4.31H36.28V29.33h19a4.59,4.59,0,0,0,2-.45A4.31,4.31,0,0,1,57.47,30.18Z" style="fill: none; stroke: rgb(0, 0, 0); stroke-miterlimit: 10; stroke-width: 2px;"></path>
        <rect class="cls-6" x="27.72" y="13.48" width="8.56" height="15.86" style="fill: none; stroke: rgb(0, 0, 0); stroke-miterlimit: 10; stroke-width: 2px;"></rect>
        <path class="cls-6" d="M8.73,13.48h19V29.33h-19a4.59,4.59,0,0,1-2-.45A4.69,4.69,0,0,1,4,24.63V18.2A4.72,4.72,0,0,1,8.73,13.48Z" style="fill: none; stroke: rgb(0, 0, 0); stroke-miterlimit: 10; stroke-width: 2px;"></path>
        <path class="cls-6" d="M60,18.2v6.43a4.69,4.69,0,0,1-2.72,4.25,4.59,4.59,0,0,1-2,.45h-19V13.48h19A4.72,4.72,0,0,1,60,18.2Z" style="fill: none; stroke: rgb(0, 0, 0); stroke-miterlimit: 10; stroke-width: 2px;"></path>
        <path class="cls-6" d="M28.65,6.32S15.55-5.14,12.76,5.05s11.6,7.74,16.68,6" style="fill: none; stroke: rgb(0, 0, 0); stroke-miterlimit: 10; stroke-width: 2px;"></path>
        <path class="cls-6" d="M35.35,6.32S48.45-5.14,51.24,5.05s-11.6,7.74-16.68,6" style="fill: none; stroke: rgb(0, 0, 0); stroke-miterlimit: 10; stroke-width: 2px;"></path>
        <path class="cls-6" d="M31.17,11.74s-7.07,5.54-8.38,21L18.8,28,15,31.32s2.21-16.58,7.75-18.84Z" style="fill: none; stroke: rgb(0, 0, 0); stroke-miterlimit: 10; stroke-width: 2px;"></path>
        <path class="cls-6" d="M48.39,31.07,44.57,27.7l-4,4.77c-1.31-15.43-8.37-21-8.37-21l8.43.74C46.18,14.5,48.39,31.07,48.39,31.07Z" style="fill: none; stroke: rgb(0, 0, 0); stroke-miterlimit: 10; stroke-width: 2px;"></path>
        <rect class="cls-6" x="28.65" y="5.05" width="6.69" height="6.69" rx="2.18" style="fill: none; stroke: rgb(0, 0, 0); stroke-miterlimit: 10; stroke-width: 2px;"></rect>
        <path class="cls-7" d="M39.46,3.87s3.47,3.73,1.68,8.43L35.4,11l.79-4.72A34,34,0,0,1,39.46,3.87Z" style="fill: none; opacity: 0.16; stroke: rgb(0, 0, 0); stroke-miterlimit: 10; stroke-width: 0px;"></path>
        <path class="cls-7" d="M4,21.64v3.59a4,4,0,0,0,2.64,3.61h0l8.74-.5a.08.08,0,0,0,.07-.08l.36-10.78s0-.08-.08-.08L8,17.5a4.63,4.63,0,0,0-4,4.14Z" style="fill: none; opacity: 0.16; stroke: rgb(0, 0, 0); stroke-miterlimit: 10; stroke-width: 0px;"></path>
      </g>
      <g id="Shadow" class="cls-8" style="mix-blend-mode: multiply;">
        <g class="cls-9" style="opacity: 0.25;">
          <path d="M55.27,13.48H45.89a42.64,42.64,0,0,1-2.16,16.89A47.93,47.93,0,0,1,33.64,48.7a30.51,30.51,0,0,1-18.16,9.86c-2.68.34-5.43.25-8,.95-.27.07-.53.16-.8.25a4.31,4.31,0,0,0,4.22,3.41h42.3a4.32,4.32,0,0,0,4.32-4.31V30.18a4.31,4.31,0,0,0-.2-1.3A4.69,4.69,0,0,0,60,24.63V18.2A4.72,4.72,0,0,0,55.27,13.48Z"></path>
          <path d="M45.69,11.77c0,.25.05.5.08.75,3.92-.42,6.87-2.34,5.47-7.47S45.78.28,42.12,1.92A28.24,28.24,0,0,1,45.69,11.77Z"></path>
        </g>
      </g>
    </g>
  </g>
</svg>