<svg xmlns="http://www.w3.org/2000/svg" viewBox="0 0 64 64"><defs><style>.cls-1{isolation:isolate;}.cls-2{fill:#3e8942;}.cls-3{fill:#f7130d;}.cls-4{fill:#fcfcfc;}.cls-5,.cls-6{fill:none;stroke:#000;stroke-width:2px;}.cls-5{stroke-miterlimit:10;}.cls-6{stroke-linecap:round;stroke-linejoin:round;}.cls-7{mix-blend-mode:multiply;}.cls-8{opacity:0.25;}</style></defs><title>Icon Color</title><g class="cls-1"><g id="Layer_1" data-name="Layer 1"><g id="Vector"><path class="cls-2" d="M46,36.54c.8-1.4,2.89-2.77,8.55-2.63a.42.42,0,0,1,.53.48c-.29,2-.52,7.94,6.35,8.48a.43.43,0,0,1,.36.58,8.58,8.58,0,0,0,.35,6.63.61.61,0,0,0,.07.1l1.16,1.25a.48.48,0,0,1-.41.79c-3.79-.48-6.3,2.8-7.12,4.07a.43.43,0,0,1-.67.08c-4.84-4.92-9.21-.93-10.58.6a.42.42,0,0,1-.72-.1l-3.49-8.22a2.35,2.35,0,0,1-.69-1.78c.27-1.81,3.79-1.58,5.41-4C46.63,40.69,44.82,38.65,46,36.54Z"/><circle class="cls-3" cx="31.5" cy="44.79" r="7.87"/><path class="cls-3" d="M23.63,44.79a7.87,7.87,0,0,1,7.87-7.86,8.31,8.31,0,0,1,1.51.14c0-.15,0-.3,0-.45l0-.2a8.34,8.34,0,0,0-.28-1.12l0-.07A7.91,7.91,0,0,0,31.5,33.1h0a7.86,7.86,0,1,0-7.83,12.41C23.65,45.27,23.63,45,23.63,44.79Z"/><path class="cls-3" d="M37.8,29.93a7.84,7.84,0,0,0-6.3,3.17,7.87,7.87,0,0,1,1.51,4,7.88,7.88,0,0,1,6.36,7.72c0,.24,0,.48,0,.72A7.86,7.86,0,0,0,37.8,29.93Z"/><path class="cls-2" d="M24.83,29.18c-1.43-.49-3.84-1.87-6-6.64a.42.42,0,0,1,.21-.69c2-.59,7.41-2.87,5-9.32a.43.43,0,0,1,.37-.58A8.55,8.55,0,0,0,30.3,8.84l.06-.11L31,7.15a.48.48,0,0,1,.89,0c1.17,3.64,5.2,4.54,6.7,4.74a.43.43,0,0,1,.35.58c-2.41,6.46,3,8.74,5,9.34a.42.42,0,0,1,.21.69l-6,6.64a8.27,8.27,0,0,1-5.38,1.94,23,23,0,0,1-4.18-1Z"/><path class="cls-2" d="M17.33,36.34c-.9-1.24-2.89-2.6-7.89-2.43a.42.42,0,0,0-.53.48c.29,2,.52,7.94-6.35,8.48a.43.43,0,0,0-.36.58,8.58,8.58,0,0,1-.35,6.63.61.61,0,0,1-.07.1L.62,51.43a.48.48,0,0,0,.41.79c3.79-.48,6.3,2.8,7.12,4.07a.43.43,0,0,0,.67.08c4.84-4.92,9.21-.93,10.58.6a.42.42,0,0,0,.72-.1l3.49-8.22a1.52,1.52,0,0,0,.44-.95c0-1.47-2.91-1.8-4.65-3.83C17.23,41.36,19.07,38.74,17.33,36.34Z"/><ellipse class="cls-4" cx="26.78" cy="41.9" rx="1.36" ry="0.63" transform="translate(-22.02 51.46) rotate(-68.49)"/><ellipse class="cls-4" cx="22.65" cy="32.69" rx="1.36" ry="0.63" transform="matrix(0.87, -0.5, 0.5, 0.87, -13.31, 15.7)"/><ellipse class="cls-4" cx="25.88" cy="44.48" rx="0.89" ry="0.62" transform="matrix(0.31, -0.95, 0.95, 0.31, -24.46, 55.17)"/><ellipse class="cls-4" cx="20.67" cy="34.39" rx="0.89" ry="0.62" transform="translate(-19.43 32.96) rotate(-56.95)"/><ellipse class="cls-4" cx="41.36" cy="33.48" rx="0.63" ry="1.36" transform="translate(-11.78 36.36) rotate(-42.09)"/><ellipse class="cls-4" cx="43" cy="35.51" rx="0.62" ry="0.89" transform="translate(-12.72 37.98) rotate(-42.09)"/></g><g id="Line"><path class="cls-5" d="M31.5,36.93a7.87,7.87,0,1,1-7.87,7.86"/><path class="cls-5" d="M27,38.34a7.85,7.85,0,0,1,4.5-1.41,8.31,8.31,0,0,1,1.51.14c0-.15,0-.3,0-.45l0-.2a8.34,8.34,0,0,0-.28-1.12l0-.07A7.91,7.91,0,0,0,31.5,33.1h0a7.86,7.86,0,1,0-7.83,12.41c0-.24,0-.48,0-.72A7.85,7.85,0,0,1,25.26,40"/><path class="cls-5" d="M37.8,29.93a7.84,7.84,0,0,0-6.3,3.17,7.87,7.87,0,0,1,1.51,4,7.88,7.88,0,0,1,6.36,7.72c0,.24,0,.48,0,.72A7.86,7.86,0,0,0,37.8,29.93Z"/><path class="cls-6" d="M24.83,29.18l-6-6.64a.42.42,0,0,1,.21-.69c2-.59,7.41-2.87,5-9.32a.44.44,0,0,1,.37-.58A8.55,8.55,0,0,0,30.3,8.84l.06-.11L31,7.15a.48.48,0,0,1,.89,0c1.17,3.64,5.2,4.54,6.7,4.74a.43.43,0,0,1,.35.58c-2.41,6.46,3,8.74,5,9.34a.42.42,0,0,1,.21.69l-6,6.64"/><line class="cls-6" x1="31.5" y1="32.3" x2="31.5" y2="15.91"/><polyline class="cls-6" points="27.89 18.43 31.5 21.96 35.52 18.43"/><polyline class="cls-6" points="26.89 23.43 31.26 27.71 36.13 23.43"/><path class="cls-6" d="M46,36.54l8.55-2.63a.42.42,0,0,1,.53.48c-.29,2-.52,7.94,6.35,8.48a.43.43,0,0,1,.36.58,8.58,8.58,0,0,0,.35,6.63.61.61,0,0,0,.07.1l1.16,1.25a.48.48,0,0,1-.41.79c-3.79-.48-6.3,2.8-7.12,4.07a.43.43,0,0,1-.67.08c-4.84-4.92-9.21-.93-10.58.6a.42.42,0,0,1-.72-.1l-3.49-8.22-.69-1.78"/><line class="cls-6" x1="43.97" y1="42.95" x2="55.23" y2="48.19"/><polyline class="cls-6" points="54.88 44.34 50.15 46.13 51.66 51.26"/><polyline class="cls-6" points="50.76 41.33 45.03 43.49 46.86 49.7"/><path class="cls-6" d="M17.33,36.34,9.44,33.91a.42.42,0,0,0-.53.48c.29,2,.52,7.94-6.35,8.48a.43.43,0,0,0-.36.58,8.58,8.58,0,0,1-.35,6.63.61.61,0,0,1-.07.1L.62,51.43a.48.48,0,0,0,.41.79c3.79-.48,6.3,2.8,7.12,4.07a.43.43,0,0,0,.67.08c4.84-4.92,9.21-.93,10.58.6a.42.42,0,0,0,.72-.1l3.49-8.22.44-.95"/><line class="cls-6" x1="18.73" y1="43.56" x2="8.77" y2="48.19"/><polyline class="cls-6" points="8.77 44.24 13.5 46.03 11.99 51.16"/><polyline class="cls-6" points="12.89 41.23 18.61 43.39 16.78 49.61"/></g><g id="Shadow" class="cls-7"><path class="cls-8" d="M62.22,50.18a.61.61,0,0,1-.07-.1,8.58,8.58,0,0,1-.35-6.63.43.43,0,0,0-.36-.58c-6.87-.54-6.64-6.44-6.35-8.48a.42.42,0,0,0-.53-.48c-5.66-.14-7.75,1.23-8.55,2.63a3.4,3.4,0,0,0-.36,1,7.85,7.85,0,0,0-7.85-7.6,8.11,8.11,0,0,0-.86.05,13.37,13.37,0,0,0,1.23-.8l6-6.64a.42.42,0,0,0-.21-.69c-2-.6-7.42-2.88-5-9.34a.43.43,0,0,0-.35-.58c-1.5-.2-5.53-1.1-6.7-4.74a.48.48,0,0,0-.89,0l-.64,1.58-.06.11c-.06.08-.13.14-.19.22A19.77,19.77,0,0,1,34.63,23.8a70.47,70.47,0,0,1-1.51,7.32l.59,0-.68.47c-.6,2.88-.89,5.7.2,8.39.7,1.75,2,3.33,2.12,5.22.2,2.76-2,5-3.33,7.46a7.85,7.85,0,0,0,7.31-7.12,7.87,7.87,0,0,0,6.27-6.72c.09,1.34.48,2.69-.49,4.12-1.62,2.38-5.14,2.15-5.41,4a2.35,2.35,0,0,0,.69,1.78l3.49,8.22a.42.42,0,0,0,.72.1c1.37-1.53,5.74-5.52,10.58-.6a.43.43,0,0,0,.67-.08c.82-1.27,3.33-4.55,7.12-4.07a.48.48,0,0,0,.41-.79Z"/></g></g></g></svg>