<svg viewBox="0 0 42 42" xmlns="http://www.w3.org/2000/svg" xmlns:bx="https://boxy-svg.com">
  <g class="cls-1" transform="matrix(0.813181, 0, 0, 0.679883, -5.043308, -0.768268)" style="isolation: isolate;" bx:origin="0 0.647451">
    <g id="Layer_1" data-name="Layer 1">
      <g id="Vector">
        <path class="cls-2" d="M54.59,31.42h0a6.82,6.82,0,0,1-.95.07c-2.12,0-2.93-.82-4.05-1.43a5,5,0,0,0-.74-.34,5.52,5.52,0,0,0-2-.32c-2.13,0-2.93.82-4,1.43a5,5,0,0,1-.74.33,5.46,5.46,0,0,1-2,.33c-3.39,0-3.39-2.09-6.8-2.09a6.08,6.08,0,0,0-1.19.1,17.7,17.7,0,0,0-3.44-1.35,17.51,17.51,0,0,1,7.34-3.78,18,18,0,0,1,4.18-.49,17.61,17.61,0,0,1,14.47,7.54Z" style="fill: rgb(235, 235, 255);"></path>
        <path class="cls-2" d="M52.34,54.34a17.59,17.59,0,0,1-12.21,4.9,17.37,17.37,0,0,1-4.7-.64c.24-.2.47-.4.7-.62h0A17.2,17.2,0,0,0,39,54.38a5.56,5.56,0,0,0,1,.08,5.48,5.48,0,0,0,2-.32,6.38,6.38,0,0,0,1.08-.53c.32-.2.63-.39,1-.58a6.33,6.33,0,0,1,.74-.33,4.35,4.35,0,0,1,.88-.23,6,6,0,0,1,1.11-.1,5.77,5.77,0,0,1,1.76.25,4.44,4.44,0,0,1,.48.17c.71.3,1.25.72,1.9,1.05a2.8,2.8,0,0,1,.3.15,3.51,3.51,0,0,0,.69.25l.35.1Z" style="fill: rgb(235, 235, 255);"></path>
        <path class="cls-3" d="M57.79,41.56a17.57,17.57,0,0,1-5.48,12.78l-.35-.1c-.25-.08-.48-.16-.69-.25a2.8,2.8,0,0,0-.3-.15c-.65-.33-1.19-.75-1.9-1.05a4.44,4.44,0,0,0-.48-.17,5.77,5.77,0,0,0-1.76-.25,6,6,0,0,0-1.11.1,3.53,3.53,0,0,0-.88.23,4.22,4.22,0,0,0-.74.33c-.35.19-.66.38-1,.58a6.38,6.38,0,0,1-1.08.53,5.48,5.48,0,0,1-2,.32,5.56,5.56,0,0,1-1-.08,16.93,16.93,0,0,0,2-4.74l.15-.63c.09-.4.16-.81.22-1.22,0-.22.07-.45.09-.67a17.51,17.51,0,0,0,.1-1.92V45c0-.21,0-.4,0-.61a3.08,3.08,0,0,0,0-.53c0-.22,0-.44-.05-.66s-.07-.59-.13-.88-.06-.37-.09-.57-.15-.68-.25-1a5.74,5.74,0,0,0-.2-.74c-.08-.24-.17-.5-.27-.74a13,13,0,0,0-.69-1.69,8.4,8.4,0,0,0-.42-.78,8.82,8.82,0,0,0-.7-1.17,4.51,4.51,0,0,0-.35-.54h0A17.62,17.62,0,0,0,32,29.5a6.08,6.08,0,0,1,1.19-.1c3.41,0,3.41,2.09,6.8,2.09a5.46,5.46,0,0,0,2-.33,5,5,0,0,0,.74-.33c1.12-.61,1.92-1.43,4-1.43a5.52,5.52,0,0,1,2,.32c.26.1.5.22.74.34,1.12.61,1.93,1.43,4.05,1.43a6.82,6.82,0,0,0,.95-.07A17.52,17.52,0,0,1,57.79,41.56Z" style="fill: rgb(247, 19, 13);"></path>
        <path class="cls-2" d="M45.56,21.63a2.67,2.67,0,0,1-1.29,2.29,17.6,17.6,0,0,0-8.33,0,2.38,2.38,0,0,1-.51-.39A2.69,2.69,0,0,1,37.33,19H42.9a2.68,2.68,0,0,1,2.66,2.68Z" style="fill: rgb(235, 235, 255);"></path>
        <path id="Group" class="cls-4" d="M47,45.26l-.14-.52L45,45.23l-1.26-.72,2.42-.65h0l-.14-.53-3,.8-.3-.18V41.46l.3-.18,2.94.79h0l.14-.53-2.44-.65L45,40.18l1.81.48h0l.14-.52-1.31-.36,1.58-.91h0L47,38.4l-1.6.92L45.76,38v0l-.52-.14-.49,1.84-1.26.72L44.15,38v0l-.53-.14-.79,3-.3.18L40.8,40a5.74,5.74,0,0,1,.2.74l1,.58-.75.43c0,.2.07.39.09.57h0l.93-.54v1.87l-.8-.46c0,.22,0,.43.05.65l.48.28-.44.25h0c0,.21,0,.4,0,.61l1-.56.3.17.79,2.94v0l.53-.14L43.5,45l1.26.72.48,1.82v0l.52-.14-.35-1.32L47,47h0l.27-.47-1.6-.92Zm-4.84-8.42-1.78,1.79V37.18l1.34-1.35-.38-.38-1,1V34.56h-.54v1.85l-1-1-.15.15a8.54,8.54,0,0,1,.69,1.15s0,0,0,0l.42.41v.37a13,13,0,0,1,.69,1.69l2-2Zm-.68,10.28c0,.22-.06.45-.09.67l.77.78.38-.39ZM41.17,49c-.05.22-.1.42-.15.62l.32.32.38-.38Z" style="fill: none;"></path>
        <path class="cls-2" d="M38.38,35.06h0a6.82,6.82,0,0,1-.95.07C34,35.13,34,33,30.62,33l-.59,0a1.44,1.44,0,0,0-.31,0,1.55,1.55,0,0,0-.32,0,.65.65,0,0,0-.19,0l-.18,0-.41.13a7.18,7.18,0,0,0-.74.33h0l-.4.25c-.19.11-.37.23-.57.33a1,1,0,0,1-.24.14c-.14.08-.28.16-.43.23a4.53,4.53,0,0,1-.81.29A1.93,1.93,0,0,1,25,35a2.74,2.74,0,0,1-.5.07,4.68,4.68,0,0,1-.66,0h-.21a5.17,5.17,0,0,1-1.79-.32c-.27-.1-.51-.22-.74-.33L21,34.39l-.52-.31-.15-.1c-.28-.16-.54-.32-.84-.46h0L19,33.36a3.31,3.31,0,0,0-.41-.13,3.25,3.25,0,0,0-.47-.1H18.1a2.92,2.92,0,0,0-.44-.06L17,33l-.63,0a3,3,0,0,0-.43.06l-.1,0a3,3,0,0,0-.43.09l-.42.13-.38.16h0a3.63,3.63,0,0,0-.51.28l-.48.28c-.22.13-.43.27-.65.39s-.47.23-.74.33a3.53,3.53,0,0,1-.88.23,6.24,6.24,0,0,1-1.13.1,5.23,5.23,0,0,1-.82-.05A17.61,17.61,0,0,1,19.74,28a17.6,17.6,0,0,1,8.33,0l.53.14a17.66,17.66,0,0,1,9.78,6.91Z" style="fill: rgb(235, 235, 255);"></path>
        <path class="cls-2" d="M36.13,58c-.23.22-.46.42-.7.62A17.69,17.69,0,0,1,11.66,58l.37-.1c1.19-.36,1.84-1.06,2.93-1.48.11,0,.23-.08.34-.12A5.52,5.52,0,0,1,17,56a5.56,5.56,0,0,1,2,.33c1.09.38,1.73,1,2.79,1.44a5.5,5.5,0,0,0,2,.32,5.66,5.66,0,0,0,2-.32c1.07-.38,1.71-1.05,2.77-1.44a4,4,0,0,1,.89-.24l.47-.05h0a5.6,5.6,0,0,1,.6,0,5.82,5.82,0,0,1,1.77.24c1.34.41,2,1.22,3.32,1.63l.4.1Z" style="fill: rgb(235, 235, 255);"></path>
        <path class="cls-3" d="M41.58,45v.22a17.51,17.51,0,0,1-.1,1.92c0,.22-.06.45-.09.67-.06.41-.13.82-.22,1.22h0c-.05.22-.1.42-.15.62a16.93,16.93,0,0,1-2,4.74A17.2,17.2,0,0,1,36.11,58l-.4-.1a7.91,7.91,0,0,1-2-1,6.74,6.74,0,0,0-1.29-.59A5.82,5.82,0,0,0,30.62,56a5.6,5.6,0,0,0-.6,0h0c-.16,0-.32,0-.47.06a4,4,0,0,0-.89.24,4.39,4.39,0,0,0-.73.33h0c-.45.24-.84.52-1.29.77h0a4.08,4.08,0,0,1-.73.34,5.66,5.66,0,0,1-2,.32,5.5,5.5,0,0,1-2-.32,3.78,3.78,0,0,1-.73-.34h0c-.45-.24-.86-.51-1.31-.77a3.85,3.85,0,0,0-.74-.33A5.56,5.56,0,0,0,17,56a5.52,5.52,0,0,0-1.72.24,2.3,2.3,0,0,0-.34.12,9.25,9.25,0,0,0-1.76,1h0c-.23.13-.46.25-.73.37l-.43.15-.37.1h0A17.67,17.67,0,0,1,9.4,35.08h0a5.23,5.23,0,0,0,.82.05,6.24,6.24,0,0,0,1.13-.1,4.18,4.18,0,0,0,.88-.23c.27-.1.51-.22.74-.33s.43-.26.65-.39l.48-.28.51-.28h0l.38-.16.42-.13a3,3,0,0,1,.43-.09l.1,0a3,3,0,0,1,.43-.06L17,33l.64,0a2.92,2.92,0,0,1,.44.06h.06a3.25,3.25,0,0,1,.47.1,3.31,3.31,0,0,1,.41.13,3.52,3.52,0,0,1,.39.16h0c.31.15.58.31.84.46l.15.1.52.31.14.08a4.15,4.15,0,0,0,.74.33,5.17,5.17,0,0,0,1.79.32h.21a4.68,4.68,0,0,0,.66,0A2.74,2.74,0,0,0,25,35a1.93,1.93,0,0,0,.43-.09,4.53,4.53,0,0,0,.81-.29c.15-.07.29-.15.43-.23a1,1,0,0,0,.24-.14c.2-.1.38-.22.57-.33l.4-.25h0a7.18,7.18,0,0,1,.74-.33l.41-.13.18,0a.65.65,0,0,1,.19,0,1.55,1.55,0,0,1,.32,0,1.44,1.44,0,0,1,.31,0l.59,0c3.4,0,3.4,2.09,6.8,2.09a6.82,6.82,0,0,0,.95-.07,4.51,4.51,0,0,1,.35.54,8.54,8.54,0,0,1,.69,1.15s0,0,0,0a8.4,8.4,0,0,1,.42.78,13,13,0,0,1,.69,1.69c.1.24.19.5.27.74a5.74,5.74,0,0,1,.2.74c.1.33.18.68.25,1s.07.39.09.57h0c.06.28.09.57.13.86h0c0,.22,0,.43.05.65h0a3,3,0,0,1,0,.52h0C41.57,44.58,41.58,44.77,41.58,45Z" style="fill: rgb(247, 19, 13);"></path>
        <path class="cls-2" d="M29.36,25.27a2.66,2.66,0,0,1-1.3,2.29,17.75,17.75,0,0,0-4.16-.5,18,18,0,0,0-4.17.5,2.33,2.33,0,0,1-.5-.39,2.68,2.68,0,0,1,1.89-4.58h5.57a2.7,2.7,0,0,1,2.67,2.68Z" style="fill: rgb(235, 235, 255);"></path>
        <path id="Group-2" data-name="Group" class="cls-4" d="M30.8,48.9l-.14-.52-1.84.49-1.26-.72L30,47.5h0L29.86,47l-3,.8-.3-.18V45.1l.3-.18,2.94.79h0l.14-.53-2.44-.65,1.26-.72,1.81.48h0l.14-.52-1.32-.36,1.58-.91h0L30.81,42l-1.6.92.35-1.29v0L29,41.51l-.49,1.84-1.26.72.65-2.41v0l-.53-.14-.79,3-.3.18-2.16-1.25V43l2.17-2.17L26,40.48l-1.78,1.79V40.82l1.34-1.35-.38-.38-1,1V38.2h-.54v1.85l-1-1-.38.38,1.35,1.35v1.45l-1.79-1.79-.38.38L23.63,43v.35l-2.16,1.25-.31-.18-.78-2.93v0l-.52.14.65,2.44-1.25-.72-.49-1.82v0l-.53.14L18.59,43,17,42.05h0l-.27.47,1.6.92L17,43.79l.14.52L19,43.82l1.25.72-2.41.65h0l.14.53,3-.8.3.18v2.49l-.3.18L18,47h0l-.14.53,2.44.65L19,48.87l-1.82-.48h0L17,48.9l1.31.36-1.57.91h0l.27.47,1.61-.93L18.24,51v0l.53.14.49-1.84,1.25-.72L19.86,51v0l.52.14.79-3,.31-.17,2.16,1.25v.35l-2.17,2.16.38.39,1.79-1.79v1.45l-1.35,1.35.38.38,1-1v1.85h.54V52.63l1,1,.38-.38-1.34-1.35V50.42L26,52.21l.39-.39-2.17-2.16v-.35l2.16-1.25.3.17.79,2.94v0l.53-.14-.66-2.44,1.26.72L29,51.16v0l.52-.14-.35-1.32,1.58.92h0l.27-.47-1.6-.92Zm-7.17-1.59v1.37L22,47.75l1.17-.68h0l-.27-.47-1.19.69V45.41l1.17.67,0,0,.27-.47L22,44.94,23.63,44v1.38h.54V44l1.62.94-1.17.67,0,0,.27.47,1.19-.69v1.87l-1.17-.68h0l-.27.47,1.19.69-1.62.93V47.31Zm1.1-1a.83.83,0,1,0-.83.84A.83.83,0,0,0,24.73,46.34Zm-.83.3a.3.3,0,0,1-.29-.3.29.29,0,0,1,.58,0A.3.3,0,0,1,23.9,46.64Z" style="fill: none;"></path>
      </g>
      <g id="Line">
        <path class="cls-5" d="M54.59,31.42h0a6.82,6.82,0,0,1-.95.07c-2.12,0-2.93-.82-4.05-1.43a5,5,0,0,0-.74-.34,5.52,5.52,0,0,0-2-.32c-2.13,0-2.93.82-4,1.43a5,5,0,0,1-.74.33,5.46,5.46,0,0,1-2,.33c-3.39,0-3.39-2.09-6.8-2.09a6.08,6.08,0,0,0-1.19.1,17.7,17.7,0,0,0-3.44-1.35,17.51,17.51,0,0,1,7.34-3.78,18,18,0,0,1,4.18-.49,17.61,17.61,0,0,1,14.47,7.54Z" style="fill: none; stroke: rgb(0, 0, 0); stroke-miterlimit: 10; stroke-width: 2px;"></path>
        <path class="cls-5" d="M52.34,54.34a17.59,17.59,0,0,1-12.21,4.9,17.37,17.37,0,0,1-4.7-.64c.24-.2.47-.4.7-.62h0A17.2,17.2,0,0,0,39,54.38a5.56,5.56,0,0,0,1,.08,5.48,5.48,0,0,0,2-.32,6.38,6.38,0,0,0,1.08-.53c.32-.2.63-.39,1-.58a6.33,6.33,0,0,1,.74-.33,4.35,4.35,0,0,1,.88-.23,6,6,0,0,1,1.11-.1,5.77,5.77,0,0,1,1.76.25,4.44,4.44,0,0,1,.48.17c.71.3,1.25.72,1.9,1.05a2.8,2.8,0,0,1,.3.15,3.51,3.51,0,0,0,.69.25l.35.1Z" style="fill: none; stroke: rgb(0, 0, 0); stroke-miterlimit: 10; stroke-width: 2px;"></path>
        <path class="cls-5" d="M56.15,49a17.75,17.75,0,0,1-3.84,5.34l-.35-.1c-.25-.08-.48-.16-.69-.25a2.8,2.8,0,0,0-.3-.15c-.65-.33-1.19-.75-1.9-1.05a4.44,4.44,0,0,0-.48-.17,5.77,5.77,0,0,0-1.76-.25,6,6,0,0,0-1.11.1,3.53,3.53,0,0,0-.88.23,4.22,4.22,0,0,0-.74.33c-.35.19-.66.38-1,.58a6.38,6.38,0,0,1-1.08.53,5.48,5.48,0,0,1-2,.32,5.56,5.56,0,0,1-1-.08,16.93,16.93,0,0,0,2-4.74l.15-.63c.09-.4.16-.81.22-1.22,0-.22.07-.45.09-.67a17.51,17.51,0,0,0,.1-1.92V45c0-.21,0-.4,0-.61a3.08,3.08,0,0,0,0-.53c0-.22,0-.44-.05-.66s-.07-.59-.13-.88-.06-.37-.09-.57-.15-.68-.25-1a5.74,5.74,0,0,0-.2-.74c-.08-.24-.17-.5-.27-.74a13,13,0,0,0-.69-1.69,8.4,8.4,0,0,0-.42-.78,8.82,8.82,0,0,0-.7-1.17,4.51,4.51,0,0,0-.35-.54h0A17.62,17.62,0,0,0,32,29.5a6.08,6.08,0,0,1,1.19-.1c3.41,0,3.41,2.09,6.8,2.09a5.46,5.46,0,0,0,2-.33,5,5,0,0,0,.74-.33c1.12-.61,1.92-1.43,4-1.43a5.52,5.52,0,0,1,2,.32c.26.1.5.22.74.34,1.12.61,1.93,1.43,4.05,1.43a6.82,6.82,0,0,0,.95-.07A17.63,17.63,0,0,1,56.93,47" style="fill: none; stroke: rgb(0, 0, 0); stroke-miterlimit: 10; stroke-width: 2px;"></path>
        <path class="cls-5" d="M45.56,21.63a2.67,2.67,0,0,1-1.29,2.29,17.6,17.6,0,0,0-8.33,0,2.38,2.38,0,0,1-.51-.39A2.69,2.69,0,0,1,37.33,19H42.9a2.68,2.68,0,0,1,2.66,2.68Z" style="fill: none; stroke: rgb(0, 0, 0); stroke-miterlimit: 10; stroke-width: 2px;"></path>
        <line class="cls-6" x1="40.11" y1="18.96" x2="40.11" y2="1.13" style="fill: none; stroke: rgb(0, 0, 0); stroke-linecap: round; stroke-linejoin: round; stroke-width: 2px;"></line>
        <path id="Group-3" data-name="Group" class="cls-7" d="M47,45.26l-.14-.52L45,45.23l-1.26-.72,2.42-.65h0l-.14-.53-3,.8-.3-.18V41.46l.3-.18,2.94.79h0l.14-.53-2.44-.65L45,40.18l1.81.48h0l.14-.52-1.31-.36,1.58-.91h0L47,38.4l-1.6.92L45.76,38v0l-.52-.14-.49,1.84-1.26.72L44.15,38v0l-.53-.14-.79,3-.3.18L40.8,40a5.74,5.74,0,0,1,.2.74l1,.58-.75.43c0,.2.07.39.09.57h0l.93-.54v1.87l-.8-.46c0,.22,0,.43.05.65l.48.28-.44.25h0c0,.21,0,.4,0,.61l1-.56.3.17.79,2.94v0l.53-.14L43.5,45l1.26.72.48,1.82v0l.52-.14-.35-1.32L47,47h0l.27-.47-1.6-.92Zm-4.84-8.42-1.78,1.79V37.18l1.34-1.35-.38-.38-1,1V34.56h-.54v1.85l-1-1-.15.15a8.54,8.54,0,0,1,.69,1.15s0,0,0,0l.42.41v.37a13,13,0,0,1,.69,1.69l2-2Zm-.68,10.28c0,.22-.06.45-.09.67l.77.78.38-.39ZM41.17,49c-.05.22-.1.42-.15.62l.32.32.38-.38Z" style="fill: none; stroke: rgb(255, 255, 255); stroke-miterlimit: 10; stroke-width: 0.75px;"></path>
        <path class="cls-5" d="M38.38,35.06h0a6.82,6.82,0,0,1-.95.07C34,35.13,34,33,30.62,33l-.59,0a1.44,1.44,0,0,0-.31,0,1.55,1.55,0,0,0-.32,0,.65.65,0,0,0-.19,0l-.18,0-.41.13a7.18,7.18,0,0,0-.74.33h0l-.4.25c-.19.11-.37.23-.57.33a1,1,0,0,1-.24.14c-.14.08-.28.16-.43.23a4.53,4.53,0,0,1-.81.29A1.93,1.93,0,0,1,25,35a2.74,2.74,0,0,1-.5.07,4.68,4.68,0,0,1-.66,0h-.21a5.17,5.17,0,0,1-1.79-.32c-.27-.1-.51-.22-.74-.33L21,34.39l-.52-.31-.15-.1c-.28-.16-.54-.32-.84-.46h0L19,33.36a3.31,3.31,0,0,0-.41-.13,3.25,3.25,0,0,0-.47-.1H18.1a2.92,2.92,0,0,0-.44-.06L17,33l-.63,0a3,3,0,0,0-.43.06l-.1,0a3,3,0,0,0-.43.09l-.42.13-.38.16h0a3.63,3.63,0,0,0-.51.28l-.48.28c-.22.13-.43.27-.65.39s-.47.23-.74.33a3.53,3.53,0,0,1-.88.23,6.24,6.24,0,0,1-1.13.1,5.23,5.23,0,0,1-.82-.05A17.61,17.61,0,0,1,19.74,28a17.6,17.6,0,0,1,8.33,0l.53.14a17.66,17.66,0,0,1,9.78,6.91Z" style="fill: none; stroke: rgb(0, 0, 0); stroke-miterlimit: 10; stroke-width: 2px;"></path>
        <path class="cls-5" d="M36.13,58c-.23.22-.46.42-.7.62A17.69,17.69,0,0,1,11.66,58l.37-.1c1.19-.36,1.84-1.06,2.93-1.48.11,0,.23-.08.34-.12A5.52,5.52,0,0,1,17,56a5.56,5.56,0,0,1,2,.33c1.09.38,1.73,1,2.79,1.44a5.5,5.5,0,0,0,2,.32,5.66,5.66,0,0,0,2-.32c1.07-.38,1.71-1.05,2.77-1.44a4,4,0,0,1,.89-.24l.47-.05h0a5.6,5.6,0,0,1,.6,0,5.82,5.82,0,0,1,1.77.24c1.34.41,2,1.22,3.32,1.63l.4.1Z" style="fill: none; stroke: rgb(0, 0, 0); stroke-miterlimit: 10; stroke-width: 2px;"></path>
        <path class="cls-5" d="M6.87,50a17.72,17.72,0,0,1-.66-4.8A17.49,17.49,0,0,1,9.4,35.08h0a5.23,5.23,0,0,0,.82.05,6.24,6.24,0,0,0,1.13-.1,4.18,4.18,0,0,0,.88-.23c.27-.1.51-.22.74-.33s.43-.26.65-.39l.48-.28.51-.28h0l.38-.16.42-.13a3,3,0,0,1,.43-.09l.1,0a3,3,0,0,1,.43-.06L17,33l.64,0a2.92,2.92,0,0,1,.44.06h.06a3.25,3.25,0,0,1,.47.1,3.31,3.31,0,0,1,.41.13,3.52,3.52,0,0,1,.39.16h0c.31.15.58.31.84.46l.15.1.52.31.14.08a4.15,4.15,0,0,0,.74.33,5.17,5.17,0,0,0,1.79.32h.21a4.68,4.68,0,0,0,.66,0A2.74,2.74,0,0,0,25,35a1.93,1.93,0,0,0,.43-.09,4.53,4.53,0,0,0,.81-.29c.15-.07.29-.15.43-.23a1,1,0,0,0,.24-.14c.2-.1.38-.22.57-.33l.4-.25h0a7.18,7.18,0,0,1,.74-.33l.41-.13.18,0a.65.65,0,0,1,.19,0,1.55,1.55,0,0,1,.32,0,1.44,1.44,0,0,1,.31,0l.59,0c3.4,0,3.4,2.09,6.8,2.09a6.82,6.82,0,0,0,.95-.07,4.51,4.51,0,0,1,.35.54,8.54,8.54,0,0,1,.69,1.15s0,0,0,0a8.4,8.4,0,0,1,.42.78,13,13,0,0,1,.69,1.69c.1.24.19.5.27.74a5.74,5.74,0,0,1,.2.74c.1.33.18.68.25,1s.07.39.09.57h0c.06.28.09.57.13.86h0c0,.22,0,.43.05.65h0a3,3,0,0,1,0,.52h0c0,.21,0,.4,0,.61v.22a17.51,17.51,0,0,1-.1,1.92c0,.22-.06.45-.09.67-.06.41-.13.82-.22,1.22h0c-.05.22-.1.42-.15.62a16.93,16.93,0,0,1-2,4.74A17.2,17.2,0,0,1,36.11,58l-.4-.1a7.91,7.91,0,0,1-2-1,6.74,6.74,0,0,0-1.29-.59A5.82,5.82,0,0,0,30.62,56a5.6,5.6,0,0,0-.6,0h0c-.16,0-.32,0-.47.06a4,4,0,0,0-.89.24,4.39,4.39,0,0,0-.73.33h0c-.45.24-.84.52-1.29.77h0a4.08,4.08,0,0,1-.73.34,5.66,5.66,0,0,1-2,.32,5.5,5.5,0,0,1-2-.32,3.78,3.78,0,0,1-.73-.34h0c-.45-.24-.86-.51-1.31-.77a3.85,3.85,0,0,0-.74-.33A5.56,5.56,0,0,0,17,56a5.52,5.52,0,0,0-1.72.24,2.3,2.3,0,0,0-.34.12,9.25,9.25,0,0,0-1.76,1h0c-.23.13-.46.25-.73.37l-.43.15-.37.1h0A17.55,17.55,0,0,1,8,53" style="fill: none; stroke: rgb(0, 0, 0); stroke-miterlimit: 10; stroke-width: 2px;"></path>
        <path class="cls-5" d="M29.36,25.27a2.66,2.66,0,0,1-1.3,2.29,17.75,17.75,0,0,0-4.16-.5,18,18,0,0,0-4.17.5,2.33,2.33,0,0,1-.5-.39,2.68,2.68,0,0,1,1.89-4.58h5.57a2.7,2.7,0,0,1,2.67,2.68Z" style="fill: none; stroke: rgb(0, 0, 0); stroke-miterlimit: 10; stroke-width: 2px;"></path>
        <line class="cls-6" x1="23.9" y1="22.6" x2="23.9" y2="4.77" style="fill: none; stroke: rgb(0, 0, 0); stroke-linecap: round; stroke-linejoin: round; stroke-width: 2px;"></line>
        <path id="Group-4" data-name="Group" class="cls-7" d="M30.8,48.9l-.14-.52-1.84.49-1.26-.72L30,47.5h0L29.86,47l-3,.8-.3-.18V45.1l.3-.18,2.94.79h0l.14-.53-2.44-.65,1.26-.72,1.81.48h0l.14-.52-1.32-.36,1.58-.91h0L30.81,42l-1.6.92.35-1.29v0L29,41.51l-.49,1.84-1.26.72.65-2.41v0l-.53-.14-.79,3-.3.18-2.16-1.25V43l2.17-2.17L26,40.48l-1.78,1.79V40.82l1.34-1.35-.38-.38-1,1V38.2h-.54v1.85l-1-1-.38.38,1.35,1.35v1.45l-1.79-1.79-.38.38L23.63,43v.35l-2.16,1.25-.31-.18-.78-2.93v0l-.52.14.65,2.44-1.25-.72-.49-1.82v0l-.53.14L18.59,43,17,42.05h0l-.27.47,1.6.92L17,43.79l.14.52L19,43.82l1.25.72-2.41.65h0l.14.53,3-.8.3.18v2.49l-.3.18L18,47h0l-.14.53,2.44.65L19,48.87l-1.82-.48h0L17,48.9l1.31.36-1.57.91h0l.27.47,1.61-.93L18.24,51v0l.53.14.49-1.84,1.25-.72L19.86,51v0l.52.14.79-3,.31-.17,2.16,1.25v.35l-2.17,2.16.38.39,1.79-1.79v1.45l-1.35,1.35.38.38,1-1v1.85h.54V52.63l1,1,.38-.38-1.34-1.35V50.42L26,52.21l.39-.39-2.17-2.16v-.35l2.16-1.25.3.17.79,2.94v0l.53-.14-.66-2.44,1.26.72L29,51.16v0l.52-.14-.35-1.32,1.58.92h0l.27-.47-1.6-.92Zm-7.17-1.59v1.37L22,47.75l1.17-.68h0l-.27-.47-1.19.69V45.41l1.17.67,0,0,.27-.47L22,44.94,23.63,44v1.38h.54V44l1.62.94-1.17.67,0,0,.27.47,1.19-.69v1.87l-1.17-.68h0l-.27.47,1.19.69-1.62.93V47.31Zm1.1-1a.83.83,0,1,0-.83.84A.83.83,0,0,0,24.73,46.34Zm-.83.3a.3.3,0,0,1-.29-.3.29.29,0,0,1,.58,0A.3.3,0,0,1,23.9,46.64Z" style="fill: none; stroke: rgb(255, 255, 255); stroke-miterlimit: 10; stroke-width: 0.75px;"></path>
        <path id="Group-5" data-name="Group" class="cls-4" d="M47,45.26l-.14-.52L45,45.23l-1.26-.72,2.42-.65h0l-.14-.53-3,.8-.3-.18V41.46l.3-.18,2.94.79h0l.14-.53-2.44-.65L45,40.18l1.81.48h0l.14-.52-1.31-.36,1.58-.91h0L47,38.4l-1.6.92L45.76,38v0l-.52-.14-.49,1.84-1.26.72L44.15,38v0l-.53-.14-.79,3-.3.18L40.8,40a5.74,5.74,0,0,1,.2.74l1,.58-.75.43c0,.2.07.39.09.57h0l.93-.54v1.87l-.8-.46c0,.22,0,.43.05.65l.48.28-.44.25h0c0,.21,0,.4,0,.61l1-.56.3.17.79,2.94v0l.53-.14L43.5,45l1.26.72.48,1.82v0l.52-.14-.35-1.32L47,47h0l.27-.47-1.6-.92Zm-4.84-8.42-1.78,1.79V37.18l1.34-1.35-.38-.38-1,1V34.56h-.54v1.85l-1-1-.15.15a8.54,8.54,0,0,1,.69,1.15s0,0,0,0l.42.41v.37a13,13,0,0,1,.69,1.69l2-2Zm-.68,10.28c0,.22-.06.45-.09.67l.77.78.38-.39ZM41.17,49c-.05.22-.1.42-.15.62l.32.32.38-.38Z" style="fill: none;"></path>
        <path id="Group-6" data-name="Group" class="cls-4" d="M30.8,48.9l-.14-.52-1.84.49-1.26-.72L30,47.5h0L29.86,47l-3,.8-.3-.18V45.1l.3-.18,2.94.79h0l.14-.53-2.44-.65,1.26-.72,1.81.48h0l.14-.52-1.32-.36,1.58-.91h0L30.81,42l-1.6.92.35-1.29v0L29,41.51l-.49,1.84-1.26.72.65-2.41v0l-.53-.14-.79,3-.3.18-2.16-1.25V43l2.17-2.17L26,40.48l-1.78,1.79V40.82l1.34-1.35-.38-.38-1,1V38.2h-.54v1.85l-1-1-.38.38,1.35,1.35v1.45l-1.79-1.79-.38.38L23.63,43v.35l-2.16,1.25-.31-.18-.78-2.93v0l-.52.14.65,2.44-1.25-.72-.49-1.82v0l-.53.14L18.59,43,17,42.05h0l-.27.47,1.6.92L17,43.79l.14.52L19,43.82l1.25.72-2.41.65h0l.14.53,3-.8.3.18v2.49l-.3.18L18,47h0l-.14.53,2.44.65L19,48.87l-1.82-.48h0L17,48.9l1.31.36-1.57.91h0l.27.47,1.61-.93L18.24,51v0l.53.14.49-1.84,1.25-.72L19.86,51v0l.52.14.79-3,.31-.17,2.16,1.25v.35l-2.17,2.16.38.39,1.79-1.79v1.45l-1.35,1.35.38.38,1-1v1.85h.54V52.63l1,1,.38-.38-1.34-1.35V50.42L26,52.21l.39-.39-2.17-2.16v-.35l2.16-1.25.3.17.79,2.94v0l.53-.14-.66-2.44,1.26.72L29,51.16v0l.52-.14-.35-1.32,1.58.92h0l.27-.47-1.6-.92Zm-7.17-1.59v1.37L22,47.75l1.17-.68h0l-.27-.47-1.19.69V45.41l1.17.67,0,0,.27-.47L22,44.94,23.63,44v1.38h.54V44l1.62.94-1.17.67,0,0,.27.47,1.19-.69v1.87l-1.17-.68h0l-.27.47,1.19.69-1.62.93V47.31Zm1.1-1a.83.83,0,1,0-.83.84A.83.83,0,0,0,24.73,46.34Zm-.83.3a.3.3,0,0,1-.29-.3.29.29,0,0,1,.58,0A.3.3,0,0,1,23.9,46.64Z" style="fill: none;"></path>
      </g>
      <g id="Shadow" class="cls-8" style="mix-blend-mode: multiply;">
        <g class="cls-9" style="opacity: 0.25;">
          <path d="M34.65,21.63a2.71,2.71,0,0,0,.78,1.9,2.38,2.38,0,0,0,.51.39,17.6,17.6,0,0,1,8.33,0,2.68,2.68,0,0,0-1.37-5H37.33A2.69,2.69,0,0,0,34.65,21.63Z"></path>
          <path d="M25,22.59a17,17,0,0,1,2.26,4.8l.78.17a2.66,2.66,0,0,0,.51-4.18,2.63,2.63,0,0,0-1.88-.79Z"></path>
          <path d="M54.58,31.42h0a17.61,17.61,0,0,0-14.47-7.54,18,18,0,0,0-4.18.49,17.51,17.51,0,0,0-7.34,3.78L28.07,28l-.64-.13c.4,1.37.71,2.79,1,4.18.09.43.17.86.25,1.29l.05,0-.05,0a41.65,41.65,0,0,1,.93,10.19,17.82,17.82,0,0,1-3.91,10.67,20.53,20.53,0,0,1-4.07,3.47l.22.1.09,0-.09,0-.22-.1c-1.58,1.08-3.24,2.08-4.78,3.22l-.39.3a17.62,17.62,0,0,0,19-2.6,17.37,17.37,0,0,0,4.7.64,17.59,17.59,0,0,0,12.21-4.9h0a17.63,17.63,0,0,0,2.27-22.92ZM23.83,58.1A6.51,6.51,0,0,1,22.69,58a6.51,6.51,0,0,0,1.14.09A7.69,7.69,0,0,0,25,58,7.69,7.69,0,0,1,23.83,58.1Zm15.6-21.32c.08.12.13.25.2.38-.07-.13-.13-.26-.21-.39ZM29.21,33.19l-.14,0a.7.7,0,0,1,.14,0l.17,0ZM25.89,57.76a4.38,4.38,0,0,0,.69-.32h0c.45-.25.84-.53,1.29-.77h0c.12-.07.25-.11.38-.17C27.43,56.89,26.81,57.42,25.89,57.76ZM30,56.05l-.47.05a3.65,3.65,0,0,0-.5.14,3.65,3.65,0,0,1,.5-.14c.15,0,.31,0,.47-.06h0Zm2.41.21A5.5,5.5,0,0,0,30.62,56h0a5.82,5.82,0,0,1,1.77.24l.15.06Zm3.32,1.62-.38-.14a3.35,3.35,0,0,0,.38.14l.2,0ZM30.62,33l-.59,0a1.44,1.44,0,0,0-.31,0,2.4,2.4,0,0,0-.28,0,2.4,2.4,0,0,1,.28,0,1.44,1.44,0,0,1,.31,0l.59,0c3.4,0,3.4,2.09,6.8,2.09a6.82,6.82,0,0,0,.95-.07l.16.24-.16-.24a6.82,6.82,0,0,1-.95.07C34,35.13,34,33,30.62,33ZM39,54.38A15.6,15.6,0,0,1,37.85,56,16.71,16.71,0,0,0,39,54.38q.38-.6.69-1.23Q39.36,53.78,39,54.38Zm1.54-15.14h0c0,.07,0,.15.08.22S40.56,39.31,40.53,39.24ZM41,40.72h0c.05.19.09.38.13.57C41.1,41.1,41.06,40.91,41,40.72Zm.34,1.59h0s0,.1,0,.15S41.35,42.36,41.34,42.31Zm.18,1.53h0a2.6,2.6,0,0,1,0,.4A2.6,2.6,0,0,0,41.52,43.84Zm.06,1.36V45h0Zm3.26,7.5a3.53,3.53,0,0,1,.88-.23A4.35,4.35,0,0,0,44.84,52.7Z"></path>
        </g>
      </g>
    </g>
  </g>
</svg>